<svg width="29" height="29" viewBox="0 0 29 29" fill="none" xmlns="http://www.w3.org/2000/svg">
<path d="M14.5 18.125C16.502 18.125 18.125 16.502 18.125 14.5C18.125 12.498 16.502 10.875 14.5 10.875C12.498 10.875 10.875 12.498 10.875 14.5C10.875 16.502 12.498 18.125 14.5 18.125Z" fill="#177755"/>
<path d="M27.8016 13.5145C26.3029 11.1967 24.3585 9.22789 22.1789 7.82037C19.7677 6.26162 17.1056 5.4375 14.4809 5.4375C12.0725 5.4375 9.70439 6.12568 7.44216 7.48279C5.13519 8.86652 3.04515 10.888 1.22982 13.4907C1.02489 13.7848 0.912021 14.1332 0.905567 14.4917C0.899112 14.8501 0.99936 15.2023 1.19357 15.5037C2.68945 17.8446 4.61466 19.8163 6.76021 21.2046C9.17593 22.7695 11.7757 23.5625 14.4809 23.5625C17.1266 23.5625 19.7944 22.7452 22.1953 21.1995C24.3737 19.7965 26.3143 17.8203 27.8073 15.4833C27.9948 15.189 28.094 14.847 28.093 14.498C28.092 14.1491 27.9908 13.8077 27.8016 13.5145ZM14.5002 19.9375C13.4247 19.9375 12.3734 19.6186 11.4792 19.0211C10.585 18.4236 9.88811 17.5744 9.47656 16.5808C9.06501 15.5873 8.95733 14.494 9.16713 13.4392C9.37694 12.3844 9.89481 11.4156 10.6553 10.6551C11.4157 9.89466 12.3846 9.37679 13.4393 9.16698C14.4941 8.95717 15.5874 9.06485 16.581 9.47641C17.5746 9.88796 18.4238 10.5849 19.0213 11.4791C19.6187 12.3733 19.9377 13.4246 19.9377 14.5C19.936 15.9416 19.3626 17.3237 18.3432 18.3431C17.3239 19.3624 15.9418 19.9359 14.5002 19.9375Z" fill="#177755"/>
</svg>
