<svg width="27" height="27" viewBox="0 0 27 27" fill="none" xmlns="http://www.w3.org/2000/svg">
<path d="M12.6562 0.84375V16.8998C12.9375 16.8833 13.2188 16.875 13.5 16.875C13.7812 16.875 14.0625 16.8833 14.3438 16.8998V10.6682L23.625 5.90625L12.6562 0.84375Z" fill="#177755"/>
<path d="M24.4113 24.126C23.961 21.8663 22.5656 19.9737 20.3708 18.6521C18.6606 17.6212 16.546 17.0016 14.3438 16.875V21.9264H12.6563V16.875C10.4525 17.0016 8.33789 17.6212 6.62771 18.6521C4.43449 19.9737 3.03755 21.8663 2.5872 24.126C2.48173 24.6433 2.55134 26.1562 2.55134 26.1562H24.4472C24.4472 26.1562 24.5147 24.6433 24.4113 24.126Z" fill="#177755"/>
</svg>
