<svg width="22" height="28" viewBox="0 0 22 28" fill="none" xmlns="http://www.w3.org/2000/svg">
<path d="M5.07692 22.75H16.9231C16.9231 23.718 16.1668 24.5 15.2308 24.5H14.3846C13.4486 24.5 12.6923 25.282 12.6923 26.25V27.3438C12.6923 27.7047 12.4067 28 12.0577 28H9.94231C9.59327 28 9.30769 27.7047 9.30769 27.3438V26.25C9.30769 25.282 8.55144 24.5 7.61538 24.5H6.76923C5.83317 24.5 5.07692 23.718 5.07692 22.75ZM22 11.375C22 15.4328 19.9375 18.9875 16.8438 21H5.15625C2.0625 18.9875 0 15.4328 0 11.375C0 5.09141 4.92356 0 11 0C17.0764 0 22 5.09141 22 11.375ZM12.4755 13.7758C13.4433 13.7758 14.226 12.9664 14.226 11.9656C14.226 11.1781 13.7341 10.5273 13.0572 10.2758C13.5649 11.7414 12.2322 13.0813 10.8413 12.5672C11.0846 13.2672 11.7139 13.7758 12.4755 13.7758ZM15.0721 16.3406C15.0721 15.5531 14.5803 14.9023 13.9034 14.6508C14.4111 16.1164 13.0784 17.4562 11.6875 16.9422C11.9308 17.6422 12.5601 18.1508 13.3216 18.1508C14.2894 18.1508 15.0721 17.3359 15.0721 16.3406ZM18.4567 12.8406C18.4567 12.0531 17.9649 11.4023 17.288 11.1508C17.7957 12.6164 16.463 13.9563 15.0721 13.4422C15.3154 14.1422 15.9447 14.6508 16.7062 14.6508C17.674 14.6508 18.4567 13.8359 18.4567 12.8406Z" fill="#177755"/>
</svg>
