<svg xmlns="http://www.w3.org/2000/svg" viewBox="0 0 24 24" fill="" width="48px" height="48px">
  <path d="M0 0h24v24H0z" fill=""/>
  <path d="M12 2C6.48 2 2 6.48 2 12s4.48 10 10 10 10-4.48 10-10S17.52 2 12 2zm5 17.93c-1.73-.44-3.29-1.39-4.5-2.65-1.21 1.26-2.77 2.2-4.5 2.65A8.017 8.017 0 0 1 4.07 15h4.26c.38 1.19 1.04 2.26 1.9 3.09A7.983 7.983 0 0 1 12 4c2.21 0 4.21.9 5.66 2.34C17.1 7.79 16.42 8.87 16.07 10H19c.1.66.1 1.33.1 2h-4.24c-.28-.67-.61-1.33-1.1-1.93-.71-.88-1.65-1.53-2.71-1.87A7.992 7.992 0 0 1 19.93 12h-4.24c.38 1.33 1.05 2.48 1.92 3.5 1.25 1.47 2.83 2.53 4.5 3.07A7.974 7.974 0 0 1 12 22c-4.42 0-8-3.58-8-8s3.58-8 8-8 8 3.58 8 8-3.58 8-8 8z"/>
</svg>
